<svg width="1024" height="1024" viewBox="0 0 1024 1024" fill="none" xmlns="http://www.w3.org/2000/svg">
<circle cx="512" cy="512" r="512" fill="#061D60"/>
<circle cx="512" cy="512" r="477.867" fill="url(#paint0_linear_183_314)"/>
<mask id="mask0_183_314" style="mask-type:alpha" maskUnits="userSpaceOnUse" x="285" y="283" width="476" height="463">
<path d="M382.294 579.513C351.516 579.513 327.67 571.373 310.756 555.092C294.119 538.811 285.801 517.701 285.801 491.763C285.801 468.031 291.624 444.852 303.27 422.225C315.193 399.597 330.166 378.763 348.189 359.723C362.885 344.27 379.66 330.887 398.515 319.573C417.648 308.26 437.612 299.429 458.408 293.083C479.481 286.736 500 283.562 519.964 283.562C535.769 283.562 550.049 285.77 562.803 290.185C575.558 294.324 585.679 300.947 593.166 310.053C600.652 319.159 604.395 331.025 604.395 345.65C604.395 358.619 601.207 370.761 594.829 382.075C588.729 393.112 580.411 402.771 569.874 411.049C559.615 419.327 548.246 425.812 535.769 430.503C523.291 435.194 510.675 437.54 497.92 437.54C481.283 437.54 467.281 433.814 455.912 426.364C444.544 418.637 438.859 408.979 438.859 397.39C438.859 382.489 448.426 367.864 467.558 353.514C470.885 351.031 473.519 349.789 475.46 349.789C476.847 349.789 477.54 350.341 477.54 351.445C477.54 354.204 475.322 356.412 470.885 358.068C455.358 370.485 447.594 383.04 447.594 395.734C447.594 404.84 451.753 412.567 460.071 418.913C468.39 424.984 478.788 428.019 491.265 428.019C502.357 428.019 513.448 425.674 524.539 420.983C535.907 416.292 546.305 409.945 555.733 401.943C565.16 393.94 572.647 384.972 578.193 375.038C584.015 364.828 586.927 354.204 586.927 343.167C586.927 325.23 580.827 312.123 568.626 303.844C556.426 295.566 540.898 291.427 522.043 291.427C500.693 291.427 479.481 295.428 458.408 303.43C437.612 311.433 418.063 322.471 399.763 336.544C381.463 350.617 365.103 366.76 350.685 384.972C321.847 421.121 307.429 455.062 307.429 486.796C307.429 503.628 311.311 517.977 319.075 529.843C326.838 541.433 337.514 550.263 351.1 556.334C364.964 562.404 380.769 565.44 398.515 565.44C424.857 565.44 450.367 559.783 475.044 548.469C499.722 536.88 520.796 521.427 538.264 502.111C542.978 497.144 546.444 494.66 548.662 494.66C550.326 494.66 551.158 495.902 551.158 498.385C551.158 501.697 549.633 504.87 546.583 507.905C537.155 517.839 525.925 527.084 512.893 535.638C499.861 544.192 485.858 551.781 470.885 558.403C456.189 565.026 441.216 570.131 425.966 573.718C410.716 577.581 396.158 579.513 382.294 579.513Z" fill="white"/>
<path d="M538.264 745.08C507.486 745.08 483.64 736.939 466.726 720.659C450.089 704.378 441.771 683.268 441.771 657.329C441.771 633.598 447.594 610.419 459.24 587.791C471.163 565.164 486.136 544.33 504.159 525.29C518.855 509.837 535.63 496.454 554.485 485.14C573.617 473.826 593.582 464.996 614.378 458.649C635.451 452.303 655.969 449.129 675.934 449.129C691.739 449.129 706.018 451.337 718.773 455.752C731.528 459.891 741.649 466.514 749.135 475.62C756.622 484.726 760.365 496.592 760.365 511.217C760.365 524.186 757.177 536.328 750.799 547.641C744.699 558.679 736.381 568.337 725.844 576.616C715.585 584.894 704.216 591.379 691.739 596.07C679.261 600.761 666.645 603.106 653.89 603.106C637.253 603.106 623.25 599.381 611.882 591.93C600.514 584.204 594.829 574.546 594.829 562.956C594.829 548.055 604.395 533.43 623.528 519.081C626.855 516.598 629.489 515.356 631.43 515.356C632.817 515.356 633.51 515.908 633.51 517.012C633.51 519.771 631.292 521.979 626.855 523.634C611.327 536.052 603.564 548.607 603.564 561.301C603.564 570.407 607.723 578.133 616.041 584.48C624.36 590.551 634.758 593.586 647.235 593.586C658.326 593.586 669.418 591.241 680.509 586.55C691.877 581.858 702.275 575.512 711.703 567.509C721.13 559.507 728.617 550.539 734.162 540.605C739.985 530.395 742.897 519.771 742.897 508.733C742.897 490.797 736.797 477.689 724.596 469.411C712.396 461.133 696.868 456.994 678.013 456.994C656.663 456.994 635.451 460.995 614.378 468.997C593.582 477 574.033 488.037 555.733 502.111C537.432 516.184 521.073 532.326 506.654 550.539C477.817 586.688 463.399 620.629 463.399 652.362C463.399 669.195 467.281 683.544 475.044 695.41C482.808 706.999 493.484 715.83 507.07 721.9C520.934 727.971 536.739 731.006 554.485 731.006C580.827 731.006 606.336 725.35 631.014 714.036C655.692 702.446 676.765 686.993 694.234 667.677C698.948 662.71 702.414 660.227 704.632 660.227C706.296 660.227 707.128 661.468 707.128 663.952C707.128 667.263 705.603 670.437 702.552 673.472C693.125 683.406 681.895 692.65 668.863 701.204C655.831 709.759 641.828 717.347 626.855 723.97C612.159 730.593 597.186 735.698 581.936 739.285C566.685 743.148 552.128 745.08 538.264 745.08Z" fill="white"/>
</mask>
<g mask="url(#mask0_183_314)">
<rect x="285.81" y="283.534" width="474.567" height="461.483" fill="white"/>
</g>
<path d="M110.975 528.775L110.95 528.196L113.192 528.072C115.526 529.381 117.659 531.17 119.591 533.44C121.523 535.711 123.084 538.388 124.275 541.473C125.464 544.503 126.14 547.865 126.303 551.559C126.552 557.183 125.09 561.768 121.916 565.314C118.687 568.863 113.806 570.817 107.272 571.177C103.175 571.402 99.1622 571.043 95.235 570.098C91.2524 569.157 87.5801 567.701 84.2181 565.73C80.7983 563.708 77.778 561.304 75.157 558.519C72.5337 555.679 70.4795 552.531 68.9945 549.076C67.4518 545.568 66.5926 541.829 66.4171 537.859C66.2757 534.662 66.4872 531.914 67.0517 529.617C67.5584 527.268 68.4758 525.421 69.804 524.077C71.1322 522.732 72.9038 521.999 75.1186 521.877C76.5029 521.801 77.9861 522.079 79.5682 522.71C81.0925 523.29 82.3219 524.106 83.2567 525.16C84.0569 526.94 84.7489 528.781 85.3326 530.683C85.8585 532.534 86.3917 534.549 86.9322 536.73L85.9464 537.033C84.7756 535.661 83.3149 534.636 81.5642 533.958C79.8136 533.281 77.9693 532.995 76.0313 533.102C73.5949 533.236 71.7343 533.836 70.4492 534.902C69.1088 535.97 68.485 537.552 68.5776 539.647C68.6776 541.908 69.7742 544.114 71.8676 546.264C73.9031 548.363 76.6222 550.231 80.025 551.868C83.4253 553.449 87.2262 554.677 91.4278 555.551C95.5716 556.373 99.7476 556.668 103.956 556.437C107.001 556.269 109.666 555.653 111.95 554.587C114.232 553.467 115.998 551.988 117.249 550.15C118.442 548.261 118.984 546.075 118.874 543.594C118.757 540.948 118.088 538.359 116.866 535.829C115.641 533.243 113.678 530.892 110.975 528.775Z" fill="#E5F3FF" fill-opacity="0.5"/>
<path d="M108.999 406.851C110.457 407.191 112.265 408.067 114.424 409.478C116.597 410.836 118.749 412.274 120.881 413.792C122.392 414.825 124.194 416.068 126.285 417.52C128.39 418.918 130.637 420.322 133.026 421.73C135.414 423.138 137.783 424.399 140.131 425.514C142.533 426.642 144.733 427.439 146.731 427.906C148.134 428.234 149.187 428.253 149.889 427.963C150.659 427.633 151.145 427.066 151.348 426.264C151.511 425.621 151.585 424.987 151.572 424.36C151.572 423.68 151.505 423.041 151.371 422.443L151.593 422.24L153.071 422.84C153.448 424.288 153.724 425.798 153.899 427.369C154.074 428.941 153.931 430.636 153.471 432.456C152.822 435.025 151.876 436.958 150.633 438.255C149.458 439.511 148.087 440.296 146.521 440.61C144.969 440.871 143.383 440.812 141.763 440.434C138.632 439.703 135.291 438.328 131.742 436.309C128.193 434.289 124.786 432.162 121.52 429.925C118.133 427.717 115.043 425.692 112.25 423.849C109.456 422.007 107.223 420.89 105.549 420.499C104.685 420.297 104.017 420.34 103.544 420.626C103.072 420.912 102.761 421.35 102.612 421.939C102.355 422.956 102.8 424.363 103.946 426.161C105.093 427.959 106.631 429.906 108.56 432C111.501 435.067 115.043 438.36 119.185 441.878C123.287 445.33 128.104 449.232 133.636 453.585C132.947 455.861 132.108 458.046 131.122 460.14C130.135 462.233 128.987 464.062 127.677 465.627C125.855 464.238 123.777 462.845 121.442 461.45C119.108 460.055 116.685 458.667 114.175 457.287C111.611 455.895 109.061 454.563 106.524 453.29C103.932 452.005 101.443 450.771 99.0539 449.59C96.6787 448.355 94.533 447.23 92.6167 446.216C86.112 442.77 81.5854 438.397 79.037 433.097C76.4345 427.785 75.8774 422.185 77.3654 416.298C78.0148 413.729 79.1296 411.693 80.7098 410.192C82.2495 408.624 84.0182 408.074 86.0158 408.54C87.5815 408.906 88.9107 409.642 90.0035 410.747C91.1099 411.799 92.0879 413.133 92.9374 414.748C93.733 416.351 94.5284 418.18 95.3238 420.237C96.3213 422.85 97.4672 425.668 98.7615 428.691C100.069 431.661 101.708 434.566 103.677 437.406C106.12 438.6 108.623 439.893 111.187 441.286C113.765 442.624 116.45 444.102 119.244 445.718L119.811 445.17C117.733 443.438 115.52 441.561 113.173 439.539C110.825 437.517 108.639 435.419 106.615 433.246C104.74 431.165 103.101 429.053 101.698 426.912C100.309 424.717 99.325 422.503 98.7458 420.271C98.1125 418.026 98.0665 415.833 98.6076 413.692C99.3246 410.855 100.655 408.87 102.6 407.737C104.49 406.592 106.623 406.296 108.999 406.851ZM93.7174 432.7C94.8915 433.257 96.0656 433.815 97.2397 434.373C98.3734 434.864 99.5273 435.388 100.701 435.946C99.5953 434.441 98.6511 432.973 97.869 431.544C97.0868 430.114 96.2843 428.765 95.4616 427.496C94.2207 425.619 92.8244 424.017 91.2727 422.691C89.7346 421.312 87.6428 420.313 84.9973 419.696C82.7837 419.179 81.1437 419.107 80.077 419.482C78.9699 419.79 78.3149 420.345 78.112 421.148C77.855 422.165 78.3673 423.305 79.649 424.568C80.8903 425.765 82.739 427.047 85.1951 428.414C87.6512 429.781 90.4919 431.21 93.7174 432.7Z" fill="#E5F3FF" fill-opacity="0.5"/>
<path d="M152.215 317.481C151.856 318.103 151.844 319.011 152.178 320.204C152.464 321.371 153.184 323.061 154.337 325.273C155.997 328.269 158.247 331.906 161.086 336.182C163.877 340.432 167.358 345.315 171.53 350.83C170.901 351.808 170.051 352.948 168.98 354.251C167.986 355.532 166.908 356.735 165.746 357.861C164.613 358.94 163.606 359.742 162.728 360.267C161.791 359.12 160.584 357.666 159.106 355.906C157.628 354.145 155.956 352.278 154.09 350.304C152.251 348.282 150.347 346.318 148.377 344.413C146.387 342.433 144.462 340.615 142.603 338.961C140.696 337.279 138.973 335.888 137.434 334.788L132.481 335.56L131.691 334.935C132.166 333.557 132.828 331.966 133.677 330.163C134.525 328.36 135.412 326.546 136.336 324.722C137.261 322.897 138.069 321.387 138.759 320.191L139.911 319.69C142.233 321.095 144.521 322.892 146.775 325.08C149.057 327.221 151.267 329.542 153.404 332.044C155.541 334.546 157.525 337.09 159.358 339.677L160.593 339.033C159.121 336.708 157.451 334.116 155.583 331.258C153.716 328.4 152.101 325.713 150.74 323.196C149.857 321.512 148.919 319.702 147.926 317.767C146.932 315.832 146.295 313.778 146.014 311.605C145.734 309.432 146.215 307.268 147.457 305.115C148.451 303.392 149.723 302.295 151.274 301.824C152.775 301.327 154.33 301.458 155.938 302.218C158.171 304.332 160.128 306.482 161.807 308.669C163.487 310.856 165.187 313.338 166.909 316.116L166.247 317.265C163.981 316.647 161.879 316.246 159.94 316.061C157.98 315.801 156.332 315.776 154.996 315.986C153.611 316.169 152.684 316.667 152.215 317.481Z" fill="#E5F3FF" fill-opacity="0.5"/>
<path d="M235.401 249.144C235.515 251.197 235.443 253.529 235.183 256.14C234.92 258.673 234.38 261.177 233.562 263.652C232.783 266.087 231.652 268.089 230.17 269.656C228.46 271.465 226.526 272.544 224.368 272.894C222.169 273.206 220.09 272.466 218.131 270.673C216.906 269.553 215.686 268.025 214.471 266.089C213.215 264.115 211.912 261.949 210.563 259.591C209.255 257.27 207.847 254.894 206.337 252.464C204.828 250.034 203.204 247.724 201.467 245.535L196.418 245.077L195.798 244.284C197.526 241.893 199.26 239.656 200.999 237.574C202.736 235.415 204.42 233.433 206.051 231.627L207.343 231.347C208.69 232.579 210.361 234.557 212.355 237.281C214.345 239.926 216.305 242.806 218.234 245.92C219.578 248.123 220.883 250.367 222.15 252.65C223.417 254.934 224.638 257.025 225.812 258.924C226.946 260.785 228.043 262.201 229.105 263.173C229.431 263.471 229.757 263.731 230.08 263.953C230.442 264.134 230.722 264.24 230.921 264.272C231.585 263.005 232.139 261.413 232.582 259.495C232.984 257.539 233.286 255.529 233.487 253.464C233.647 251.362 233.658 249.498 233.52 247.872L233.931 247.799L235.401 249.144ZM195.85 229.491C194.862 230.536 193.72 231.14 192.423 231.303C191.086 231.429 189.928 231.044 188.948 230.148C187.927 229.214 187.317 228.168 187.117 227.011C186.955 225.813 187.07 224.644 187.462 223.504C187.814 222.327 188.351 221.356 189.073 220.593C190.061 219.548 191.205 218.982 192.504 218.897C193.762 218.773 194.881 219.16 195.861 220.056C196.841 220.953 197.452 221.998 197.692 223.193C197.893 224.351 197.836 225.498 197.522 226.635C197.167 227.735 196.61 228.687 195.85 229.491Z" fill="#E5F3FF" fill-opacity="0.5"/>
<path d="M303.304 193.129C304.528 194.904 305.183 196.729 305.267 198.606C305.366 200.407 305.049 202.189 304.315 203.952C303.595 205.639 302.573 207.229 301.25 208.724C300.004 210.232 298.623 211.498 297.109 212.521C294.999 213.947 292.731 215.145 290.306 216.116C287.959 217.101 285.645 217.696 283.365 217.902C281.132 218.077 279.161 217.707 277.454 216.793C277.031 215.011 276.848 213.234 276.903 211.462C276.927 209.645 277.076 207.91 277.349 206.259L277.968 205.84C279.106 206.806 280.444 207.77 281.982 208.732C283.52 209.694 285.126 210.51 286.8 211.18C288.473 211.851 290.059 212.247 291.556 212.37C293.099 212.462 294.421 212.135 295.523 211.392C296.716 210.586 297.504 209.486 297.888 208.093C298.241 206.654 297.883 205.161 296.816 203.615C296.031 202.477 295.081 201.685 293.965 201.238C292.849 200.791 291.613 200.559 290.256 200.542C288.913 200.449 287.44 200.41 285.836 200.426C283.554 200.433 281.48 200.4 279.613 200.327C277.761 200.178 276.075 199.782 274.556 199.141C273.051 198.423 271.781 197.313 270.745 195.812C269.238 193.628 268.502 191.391 268.536 189.1C268.569 186.81 269.113 184.575 270.166 182.396C271.265 180.187 272.69 178.157 274.44 176.308C276.16 174.412 277.96 172.829 279.842 171.559C283.283 169.234 286.46 167.989 289.372 167.822C292.299 167.58 294.485 168.505 295.929 170.597C296.777 171.826 297.139 173.082 297.016 174.365C296.893 175.649 296.516 177.004 295.886 178.431C295.122 179.079 294.275 179.752 293.342 180.448C292.41 181.145 291.478 181.841 290.546 182.537C289.66 183.203 288.781 183.83 287.909 184.419L287.278 183.944C287.539 182.567 287.693 181.23 287.739 179.931C287.799 178.557 287.515 177.414 286.887 176.504C286.134 175.413 284.884 174.723 283.138 174.435C281.438 174.116 279.808 174.483 278.248 175.537C276.825 176.498 275.923 177.774 275.542 179.366C275.175 180.881 275.603 182.526 276.828 184.3C277.644 185.483 278.618 186.359 279.751 186.928C280.929 187.466 282.221 187.827 283.627 188.011C285.047 188.119 286.536 188.181 288.093 188.196C290.39 188.112 292.48 188.168 294.364 188.363C296.216 188.512 297.895 188.946 299.399 189.664C300.904 190.382 302.205 191.537 303.304 193.129Z" fill="#E5F3FF" fill-opacity="0.5"/>
<path d="M389.974 151.907C389.319 153.412 388.363 155.214 387.108 157.312C385.904 159.389 384.515 161.45 382.941 163.496C381.367 165.541 379.676 167.366 377.867 168.969C376.079 170.624 374.282 171.808 372.478 172.519C370.158 173.434 367.97 173.555 365.915 172.881C363.86 172.207 362.344 170.638 361.368 168.174C360.757 166.633 360.186 164.514 359.653 161.815C359.172 159.096 358.713 156.131 358.275 152.92C357.869 149.637 357.498 146.518 357.162 143.564C357.063 142.712 356.96 141.774 356.851 140.748C356.743 139.722 356.639 138.932 356.538 138.378L352.672 139.903L352.743 137.826L356.455 136.363C358.45 134.626 360.122 132.453 361.473 129.843C362.875 127.212 363.876 124.473 364.476 121.624C365.056 118.724 365.166 116.069 364.807 113.658L367.029 113.85C367.502 116.097 367.948 118.801 368.365 121.961C368.834 125.1 369.22 128.183 369.525 131.209L377.568 128.038L377.496 130.114L369.685 133.194C369.723 133.891 369.786 134.727 369.874 135.702C370.014 136.656 370.112 137.507 370.171 138.256C370.375 140.728 370.64 143.354 370.967 146.134C371.293 148.915 371.661 151.649 372.07 154.337C372.459 156.973 372.87 159.364 373.302 161.509C373.714 163.602 374.144 165.214 374.591 166.343C374.754 166.754 374.922 167.103 375.096 167.391C375.249 167.627 375.382 167.812 375.494 167.946C376.65 167.253 377.891 166.17 379.215 164.698C380.539 163.226 381.839 161.615 383.113 159.866C384.418 158.046 385.585 156.25 386.612 154.48C387.639 152.709 388.408 151.189 388.918 149.919L389.242 150.059L389.974 151.907Z" fill="#E5F3FF" fill-opacity="0.5"/>
<path d="M466.279 137.058C465.101 138.773 463.604 140.598 461.788 142.534C460.017 144.407 458.047 146.089 455.877 147.582C453.761 149.065 451.638 149.99 449.507 150.356C447.048 150.779 444.863 150.482 442.953 149.466C441.035 148.396 439.86 146.553 439.428 143.939C439.159 142.306 439.145 140.348 439.387 138.066C439.619 135.73 439.934 133.212 440.332 130.511C440.738 127.865 441.099 125.115 441.415 122.261C441.731 119.406 441.883 116.58 441.871 113.782L438.191 110.382L438.193 109.374C441.026 108.495 443.768 107.744 446.419 107.12C449.116 106.433 451.662 105.856 454.057 105.388L455.244 105.94C455.541 107.737 455.631 110.326 455.514 113.706C455.443 117.023 455.203 120.508 454.795 124.163C454.488 126.735 454.128 129.317 453.712 131.909C453.297 134.5 452.964 136.91 452.713 139.137C452.454 141.31 452.441 143.104 452.674 144.52C452.746 144.956 452.841 145.359 452.958 145.731C453.131 146.094 453.285 146.347 453.421 146.492C454.724 145.876 456.142 144.932 457.674 143.661C459.198 142.335 460.676 140.905 462.109 139.371C463.532 137.782 464.692 136.295 465.587 134.909L465.956 135.098L466.279 137.058ZM447.369 97.5486C445.948 97.7927 444.678 97.5908 443.56 96.9429C442.433 96.2405 441.761 95.2358 441.545 93.9288C441.321 92.5673 441.487 91.3626 442.045 90.3148C442.657 89.2575 443.469 88.3899 444.481 87.712C445.485 86.9797 446.505 86.5243 447.544 86.3459C448.964 86.1018 450.211 86.3357 451.284 87.0474C452.348 87.7047 452.987 88.6869 453.203 89.9939C453.419 91.3009 453.252 92.5056 452.704 93.6079C452.146 94.6558 451.393 95.5412 450.444 96.2642C449.487 96.9327 448.462 97.3608 447.369 97.5486Z" fill="#E5F3FF" fill-opacity="0.5"/>
<path d="M578.579 136.382C577.43 137.403 575.969 138.484 574.197 139.624C572.485 140.714 570.612 141.736 568.578 142.69C566.599 143.649 564.61 144.414 562.611 144.984C560.666 145.558 558.865 145.783 557.206 145.659C554.551 145.46 552.62 144.652 551.411 143.233C550.257 141.819 549.788 139.902 550.005 137.484C550.153 135.835 550.73 133.747 551.736 131.221C552.797 128.7 553.946 126.129 555.182 123.51C556.424 120.836 557.568 118.321 558.614 115.964C559.661 113.607 560.24 111.797 560.354 110.532C560.433 109.653 560.293 109.034 559.936 108.675C559.583 108.261 559.075 108.03 558.411 107.98C557.416 107.906 556.075 108.58 554.389 110.003C552.758 111.431 551.034 113.267 549.219 115.511C546.631 118.914 543.879 122.914 540.962 127.511C538.045 132.107 534.832 137.512 531.325 143.724C530.169 143.582 528.773 143.312 527.139 142.913C525.555 142.573 524.009 142.126 522.5 141.57C521.046 141.019 519.899 140.463 519.058 139.902C519.79 138.573 520.639 136.865 521.605 134.779C522.571 132.694 523.585 130.39 524.646 127.868C525.707 125.346 526.715 122.793 527.671 120.208C528.686 117.573 529.551 115.064 530.266 112.683C531.041 110.25 531.595 108.106 531.928 106.249L529.206 102.144L529.544 101.173C530.951 101.002 532.657 100.908 534.663 100.892C536.668 100.876 538.699 100.889 540.755 100.932C542.811 100.975 544.53 101.049 545.913 101.152L546.925 101.975C546.693 104.558 546.055 107.333 545.01 110.298C544.02 113.268 542.776 116.274 541.279 119.316C539.786 122.304 538.218 125.203 536.575 128.013L537.677 128.759C539.11 126.431 540.669 123.947 542.353 121.306C544.092 118.669 545.902 116.176 547.783 113.826C550.471 110.541 553.362 107.796 556.454 105.592C559.546 103.389 562.752 102.411 566.07 102.659C569.001 102.878 571.171 103.815 572.582 105.47C573.992 107.125 574.589 109.162 574.372 111.58C574.234 113.12 573.54 115.281 572.288 118.065C571.092 120.853 569.777 123.716 568.345 126.652C566.863 129.53 565.528 132.308 564.342 134.986C563.215 137.613 562.588 139.642 562.46 141.071C562.401 141.731 562.467 142.234 562.659 142.58C564.875 142.082 566.942 141.378 568.86 140.47C570.784 139.507 572.576 138.452 574.238 137.303C575.9 136.154 577.333 135.072 578.538 134.055L578.764 134.321L578.579 136.382Z" fill="#E5F3FF" fill-opacity="0.5"/>
<path d="M670.565 129.669C669.151 129.178 667.577 129.362 665.843 130.221C664.179 131.046 662.449 132.374 660.651 134.204C658.924 136.001 657.276 138.146 655.706 140.64C654.188 143.152 652.903 145.833 651.851 148.682C650.646 151.946 650.404 154.842 651.125 157.372C651.897 159.919 653.776 161.711 656.761 162.747C660.112 163.911 663.752 164.21 667.682 163.646C671.683 163.048 675.609 161.693 679.46 159.582L679.717 159.847L679 161.789C675.726 163.458 672.243 164.733 668.551 165.613C664.878 166.442 661.217 166.837 657.569 166.798C653.974 166.777 650.631 166.23 647.542 165.157C642.672 163.467 639.423 160.907 637.795 157.478C636.237 154.015 636.3 150.004 637.983 145.445C638.958 142.803 640.307 140.349 642.029 138.084C643.823 135.784 645.864 133.775 648.152 132.057C650.441 130.338 652.921 128.979 655.595 127.978C658.32 126.996 661.085 126.465 663.89 126.387C666.767 126.276 669.593 126.701 672.368 127.665C674.829 128.519 676.809 129.557 678.307 130.779C679.858 132.018 680.885 133.398 681.388 134.916C681.89 136.435 681.817 138.075 681.167 139.836C680.536 141.546 679.348 143.004 677.603 144.21C675.93 145.382 673.885 146.28 671.47 146.902C669.055 147.525 666.366 147.848 663.403 147.871C660.494 147.913 657.425 147.666 654.196 147.129L654.177 145.983C656.053 145.699 657.883 145.224 659.665 144.557C661.518 143.856 663.263 142.972 664.898 141.903C666.533 140.834 667.951 139.632 669.153 138.296C670.355 136.96 671.233 135.54 671.788 134.038C672.228 132.847 672.343 131.893 672.135 131.178C671.979 130.481 671.455 129.978 670.565 129.669Z" fill="#E5F3FF" fill-opacity="0.5"/>
<path d="M731.829 130.775C732.702 129.431 733.821 128.369 735.185 127.591C736.548 126.813 737.988 126.375 739.505 126.277C741.021 126.18 742.39 126.511 743.612 127.272C745.164 128.238 746.064 129.547 746.311 131.198C746.559 132.849 746.081 134.602 744.877 136.456C743.732 138.217 742.021 139.885 739.743 141.461C737.495 142.991 734.971 144.284 732.172 145.34C729.42 146.426 726.622 147.125 723.777 147.437L721.873 146.252L722.054 145.974C724.405 145.81 726.843 145.31 729.368 144.473C731.969 143.619 734.357 142.535 736.532 141.22C738.707 139.905 740.392 138.481 741.587 136.946L741.068 136.525C739.852 137.787 738.503 138.542 737.021 138.791C735.569 138.993 734.255 138.729 733.08 137.997C731.81 137.207 731.047 136.146 730.789 134.814C730.579 133.511 730.926 132.165 731.829 130.775Z" fill="#E5F3FF" fill-opacity="0.5"/>
<path d="M753.715 220.93C752.172 222.438 750.473 223.402 748.619 223.822C746.843 224.243 745.01 224.256 743.119 223.861C741.307 223.466 739.536 222.761 737.805 221.745C736.074 220.807 734.56 219.696 733.264 218.41C731.457 216.618 729.848 214.632 728.437 212.454C727.026 210.352 726.009 208.214 725.386 206.038C724.802 203.901 724.81 201.921 725.408 200.099C727.105 199.367 728.842 198.869 730.617 198.604C732.431 198.3 734.186 198.132 735.881 198.099L736.412 198.625C735.658 199.903 734.943 201.376 734.267 203.042C733.59 204.709 733.072 206.415 732.71 208.16C732.349 209.906 732.245 211.516 732.397 212.992C732.589 214.506 733.156 215.731 734.098 216.666C735.12 217.679 736.359 218.247 737.818 218.368C739.315 218.451 740.737 217.835 742.082 216.521C743.071 215.554 743.686 214.489 743.927 213.325C744.167 212.161 744.172 210.919 743.94 209.599C743.787 208.278 743.556 206.841 743.246 205.287C742.821 203.073 742.474 201.054 742.204 199.228C742.014 197.403 742.099 195.695 742.46 194.105C742.899 192.515 743.772 191.082 745.077 189.806C746.976 187.95 749.07 186.832 751.357 186.452C753.645 186.072 755.971 186.197 758.334 186.827C760.736 187.495 763.019 188.513 765.182 189.879C767.385 191.207 769.291 192.669 770.902 194.267C773.847 197.189 775.67 200.048 776.369 202.846C777.148 205.643 776.627 207.932 774.807 209.711C773.739 210.755 772.554 211.333 771.253 211.444C769.951 211.556 768.532 211.435 766.996 211.08C766.21 210.456 765.385 209.754 764.52 208.975C763.656 208.195 762.792 207.416 761.927 206.636C761.102 205.896 760.316 205.155 759.57 204.415L759.927 203.718C761.347 203.723 762.707 203.631 764.009 203.441C765.389 203.252 766.475 202.771 767.266 201.998C768.216 201.069 768.674 199.732 768.641 197.985C768.647 196.277 767.983 194.761 766.647 193.436C765.429 192.228 763.993 191.583 762.338 191.499C760.761 191.416 759.201 192.128 757.658 193.636C756.63 194.642 755.936 195.746 755.576 196.948C755.257 198.189 755.133 199.508 755.207 200.906C755.36 202.304 755.571 203.76 755.842 205.275C756.346 207.489 756.674 209.528 756.824 211.392C757.015 213.217 756.89 214.925 756.451 216.515C756.011 218.104 755.099 219.576 753.715 220.93Z" fill="#E5F3FF" fill-opacity="0.5"/>
<path d="M328.382 873.005L328.904 873.262L327.91 875.267C325.613 876.658 322.991 877.644 320.045 878.222C317.099 878.801 313.977 878.862 310.679 878.404C307.431 877.972 304.142 876.934 300.813 875.291C295.746 872.789 292.433 869.306 290.875 864.84C289.341 860.326 290.022 855.148 292.917 849.308C294.733 845.645 297.021 842.339 299.782 839.39C302.567 836.391 305.652 833.909 309.038 831.946C312.497 829.957 316.095 828.499 319.832 827.571C323.619 826.668 327.397 826.408 331.165 826.789C335.008 827.146 338.718 828.207 342.295 829.973C345.176 831.395 347.488 832.906 349.231 834.505C351.048 836.079 352.221 837.767 352.75 839.569C353.279 841.37 353.053 843.26 352.072 845.24C351.458 846.478 350.485 847.63 349.152 848.697C347.893 849.739 346.571 850.411 345.185 850.712C343.226 850.546 341.267 850.257 339.308 849.844C337.422 849.406 335.388 848.895 333.204 848.31L333.422 847.309C335.205 846.956 336.824 846.185 338.28 844.994C339.736 843.803 340.894 842.341 341.753 840.609C342.832 838.431 343.219 836.528 342.914 834.898C342.633 833.22 341.549 831.914 339.661 830.983C337.624 829.977 335.145 829.863 332.225 830.639C329.379 831.39 326.4 832.846 323.289 835.006C320.227 837.191 317.279 839.895 314.445 843.116C311.685 846.313 309.373 849.792 307.509 853.553C306.159 856.275 305.391 858.884 305.205 861.38C305.069 863.9 305.501 866.146 306.502 868.119C307.577 870.066 309.233 871.592 311.468 872.695C313.853 873.872 316.458 874.542 319.284 874.705C322.159 874.892 325.192 874.326 328.382 873.005Z" fill="#E5F3FF" fill-opacity="0.5"/>
<path d="M422.979 882.414C422.274 882.264 421.396 882.527 420.343 883.206C419.303 883.83 417.885 885.022 416.091 886.784C413.69 889.262 410.845 892.492 407.556 896.473C404.278 900.401 400.593 905.173 396.501 910.789C395.374 910.492 394.026 910.034 392.457 909.416C390.931 908.864 389.455 908.21 388.029 907.453C386.658 906.708 385.59 906 384.826 905.328C385.657 904.095 386.704 902.513 387.968 900.581C389.231 898.65 390.54 896.503 391.896 894.14C393.306 891.788 394.641 889.392 395.899 886.952C397.224 884.469 398.411 882.098 399.461 879.839C400.523 877.526 401.358 875.475 401.968 873.686L399.772 869.237L400.143 868.3C401.61 868.332 403.337 868.475 405.323 868.731C407.31 868.986 409.318 869.275 411.347 869.596C413.376 869.917 415.068 870.223 416.424 870.513L417.244 871.45C416.57 874.072 415.509 876.78 414.061 879.575C412.667 882.382 411.077 885.175 409.293 887.954C407.508 890.734 405.637 893.382 403.682 895.899L404.664 896.871C406.474 894.774 408.482 892.41 410.689 889.777C412.896 887.144 415.012 884.803 417.038 882.753C418.403 881.407 419.872 879.972 421.446 878.446C423.02 876.919 424.813 875.694 426.825 874.77C428.837 873.845 431.062 873.644 433.502 874.166C435.454 874.584 436.884 875.454 437.792 876.777C438.711 878.046 439.04 879.556 438.779 881.307C437.397 884.059 435.898 886.561 434.283 888.812C432.667 891.063 430.774 893.424 428.601 895.895L427.3 895.617C427.231 893.287 427.002 891.178 426.612 889.288C426.288 887.356 425.829 885.79 425.235 884.591C424.653 883.337 423.901 882.612 422.979 882.414Z" fill="#E5F3FF" fill-opacity="0.5"/>
<path d="M515.897 881.948C514.4 881.968 512.997 882.677 511.687 884.074C510.432 885.415 509.295 887.252 508.276 889.584C507.313 891.86 506.547 894.437 505.981 897.314C505.47 900.191 505.238 903.147 505.284 906.182C505.336 909.659 506.155 912.463 507.741 914.594C509.381 916.725 511.782 917.769 514.943 917.726C518.492 917.678 521.999 916.72 525.465 914.852C528.985 912.929 532.162 910.319 534.996 907.025L535.332 907.186L535.363 909.255C532.908 911.938 530.116 914.321 526.986 916.405C523.855 918.434 520.58 920.051 517.159 921.256C513.794 922.461 510.476 923.085 507.205 923.129C502.048 923.198 498.09 921.899 495.332 919.232C492.629 916.508 491.24 912.719 491.166 907.862C491.124 905.048 491.498 902.283 492.288 899.568C493.134 896.797 494.315 894.215 495.831 891.821C497.348 889.427 499.174 887.305 501.309 885.455C503.499 883.605 505.89 882.165 508.481 881.137C511.127 880.052 513.919 879.49 516.858 879.451C519.464 879.416 521.687 879.717 523.527 880.355C525.422 880.992 526.879 881.938 527.896 883.194C528.914 884.449 529.436 886.015 529.465 887.892C529.493 889.713 528.909 891.487 527.715 893.214C526.576 894.885 524.991 896.424 522.96 897.831C520.93 899.238 518.535 900.457 515.778 901.488C513.076 902.518 510.121 903.33 506.913 903.925L506.481 902.855C508.131 901.949 509.668 900.88 511.091 899.647C512.569 898.357 513.879 896.932 515.02 895.371C516.161 893.811 517.051 892.198 517.692 890.534C518.332 888.869 518.64 887.237 518.616 885.637C518.596 884.367 518.36 883.432 517.907 882.831C517.51 882.229 516.84 881.935 515.897 881.948Z" fill="#E5F3FF" fill-opacity="0.5"/>
<path d="M634.918 892.435C634.104 893.768 633.067 895.241 631.807 896.852C630.534 898.411 629.086 899.954 627.464 901.484C625.895 903 624.254 904.335 622.539 905.489C620.878 906.63 619.213 907.403 617.542 907.808C615.172 908.383 613.161 908.217 611.511 907.31C609.848 906.35 608.734 904.717 608.168 902.412C607.891 901.286 607.79 900.061 607.865 898.736C607.926 897.358 608.129 895.747 608.476 893.902C608.876 892.044 609.392 889.846 610.024 887.307L607.578 888.155C607.189 890.522 606.698 893.055 606.105 895.755C605.499 898.401 604.732 900.973 603.803 903.47C602.875 905.967 601.714 908.094 600.319 909.853C598.924 911.611 597.229 912.731 595.236 913.215C593.188 913.711 591.225 913.505 589.347 912.597C587.522 911.676 585.929 910.188 584.568 908.132C583.194 906.023 582.151 903.521 581.44 900.626C580.518 896.873 580.141 893.244 580.308 889.738C580.461 886.179 581.124 882.951 582.297 880.054C583.51 877.091 585.158 874.618 587.24 872.636C589.363 870.588 591.906 869.205 594.87 868.486C597.079 867.951 599.137 867.963 601.044 868.523C602.951 869.084 604.621 870.071 606.053 871.484L605.758 873.771C604.593 872.747 603.293 871.869 601.858 871.138C600.409 870.353 598.957 870.137 597.502 870.49C596.425 870.751 595.532 871.649 594.824 873.184C594.157 874.652 593.696 876.61 593.441 879.057C593.172 881.451 593.151 884.154 593.377 887.167C593.644 890.113 594.172 893.194 594.962 896.411C595.621 899.091 596.383 901.15 597.25 902.587C598.117 904.024 599.062 904.619 600.086 904.371C600.894 904.175 601.591 903.296 602.178 901.734C602.806 900.105 603.513 897.405 604.3 893.636C604.77 891.364 605.221 888.784 605.653 885.896C606.139 882.994 606.607 879.899 607.055 876.609C607.49 873.266 607.871 869.822 608.2 866.278C609.828 866.167 611.469 866.224 613.122 866.448C614.83 866.659 616.402 867.016 617.839 867.52C619.316 867.957 620.537 868.513 621.502 869.188C621.845 870.582 621.913 872.838 621.708 875.955C621.503 879.072 621.257 882.369 620.969 885.847C620.722 889.258 620.496 892.522 620.291 895.639C620.127 898.689 620.216 900.912 620.558 902.305C620.716 902.949 620.943 903.405 621.237 903.675C623.18 902.522 624.963 901.181 626.586 899.652C628.249 898.056 629.704 896.425 630.951 894.76C632.251 893.081 633.308 891.575 634.123 890.242L634.424 890.424L634.918 892.435Z" fill="#E5F3FF" fill-opacity="0.5"/>
<path d="M708.151 857.988C707.613 859.537 706.798 861.404 705.707 863.588C704.666 865.749 703.439 867.908 702.025 870.064C700.612 872.221 699.065 874.166 697.384 875.9C695.727 877.683 694.026 878.997 692.28 879.842C690.036 880.928 687.862 881.212 685.76 880.695C683.658 880.178 682.025 878.728 680.861 876.346C680.134 874.857 679.401 872.787 678.662 870.138C677.973 867.464 677.286 864.544 676.603 861.377C675.945 858.136 675.335 855.056 674.773 852.137C674.608 851.296 674.433 850.369 674.246 849.355C674.059 848.34 673.894 847.561 673.751 847.016L670.011 848.826L669.923 846.752L673.514 845.014C675.37 843.134 676.872 840.843 678.018 838.141C679.214 835.414 680.002 832.609 680.382 829.725C680.738 826.792 680.644 824.137 680.1 821.761L682.332 821.786C682.977 823.99 683.629 826.651 684.288 829.768C684.997 832.862 685.62 835.905 686.157 838.897L693.937 835.133L694.025 837.208L686.469 840.863C686.561 841.555 686.688 842.384 686.851 843.348C687.063 844.289 687.227 845.13 687.343 845.871C687.737 848.32 688.204 850.917 688.743 853.662C689.283 856.408 689.86 859.105 690.475 861.753C691.066 864.352 691.659 866.703 692.256 868.808C692.828 870.863 693.38 872.437 693.914 873.529C694.108 873.926 694.302 874.261 694.497 874.535C694.669 874.759 694.815 874.933 694.938 875.058C696.038 874.28 697.192 873.108 698.4 871.542C699.608 869.976 700.781 868.273 701.918 866.434C703.08 864.522 704.106 862.645 704.994 860.804C705.883 858.962 706.533 857.39 706.945 856.086L707.278 856.201L708.151 857.988Z" fill="#E5F3FF" fill-opacity="0.5"/>
<path d="M771.693 818.169C771.434 820.222 770.943 822.518 770.218 825.057C769.504 827.518 768.524 829.902 767.279 832.208C766.078 834.481 764.611 836.263 762.879 837.552C760.881 839.04 758.796 839.766 756.623 839.73C754.417 839.649 752.517 838.548 750.925 836.425C749.929 835.099 749.012 833.369 748.173 831.237C747.301 829.06 746.418 826.685 745.524 824.111C744.664 821.581 743.715 818.979 742.677 816.305C741.64 813.631 740.469 811.057 739.165 808.581L734.311 807.233L733.847 806.337C735.968 804.276 738.067 802.368 740.143 800.615C742.23 798.785 744.234 797.121 746.155 795.622L747.469 795.574C748.564 797.033 749.84 799.288 751.298 802.337C752.768 805.31 754.165 808.509 755.489 811.934C756.406 814.354 757.277 816.806 758.104 819.292C758.932 821.778 759.748 824.065 760.554 826.153C761.327 828.197 762.144 829.794 763.007 830.943C763.273 831.297 763.544 831.612 763.82 831.889C764.141 832.132 764.396 832.287 764.585 832.353C765.462 831.217 766.291 829.739 767.07 827.918C767.816 826.053 768.473 824.116 769.042 822.107C769.578 820.054 769.924 818.21 770.082 816.576L770.498 816.577L771.693 818.169ZM736.566 791.699C735.412 792.559 734.186 792.954 732.889 792.886C731.559 792.774 730.495 792.187 729.699 791.126C728.869 790.021 728.461 788.877 728.474 787.696C728.532 786.481 728.855 785.344 729.444 784.285C730.001 783.181 730.701 782.316 731.544 781.687C732.699 780.828 733.919 780.47 735.205 780.616C736.457 780.717 737.482 781.298 738.278 782.359C739.074 783.421 739.483 784.564 739.503 785.79C739.49 786.971 739.227 788.097 738.716 789.168C738.171 790.194 737.454 791.038 736.566 791.699Z" fill="#E5F3FF" fill-opacity="0.5"/>
<path d="M833.082 726.009C832.692 729.403 831.973 732.879 830.927 736.436C829.88 739.993 828.549 743.414 826.933 746.697C825.318 749.981 823.437 752.852 821.293 755.311C819.002 757.936 816.427 759.583 813.568 760.252C810.708 760.92 807.919 760.077 805.201 757.721C802.901 755.727 801.215 753.534 800.144 751.142C799.109 748.708 798.76 746.247 799.096 743.757C799.432 741.267 800.527 738.959 802.381 736.834C804.235 734.708 806.42 733.382 808.936 732.855C811.41 732.291 814.074 732.478 816.929 733.415C819.741 734.316 822.507 735.944 825.225 738.3C825.685 738.699 826.127 739.119 826.55 739.559C827.01 739.958 827.431 740.359 827.813 740.763C828.775 738.23 829.535 735.632 830.095 732.97C830.69 730.267 831.073 727.597 831.241 724.963L831.702 724.813L833.082 726.009ZM806.13 755.013C807.761 756.427 809.396 757.331 811.034 757.726C812.63 758.085 814.209 757.917 815.771 757.221C817.332 756.525 818.895 755.282 820.458 753.489C820.567 753.364 820.712 753.198 820.894 752.989C821.034 752.745 821.177 752.539 821.322 752.372C820.898 751.932 820.478 751.531 820.059 751.168C819.599 750.769 819.16 750.389 818.742 750.026C816.358 747.96 814.056 746.221 811.836 744.81C809.653 743.356 807.703 742.434 805.987 742.045C804.265 741.577 802.986 741.823 802.15 742.781C801.459 743.573 801.145 744.691 801.207 746.135C801.263 747.502 801.701 748.979 802.519 750.566C803.296 752.117 804.5 753.6 806.13 755.013ZM823.676 754.851C825.175 752.711 826.449 750.705 827.495 748.831C828.5 746.921 829.297 745.123 829.886 743.438C831.485 746.068 832.669 748.961 833.441 752.118C834.212 755.274 834.535 758.482 834.41 761.74C834.285 764.998 833.662 768.154 832.541 771.208C831.456 774.219 829.86 776.934 827.751 779.351C825.897 781.477 823.879 782.948 821.698 783.765C819.511 784.504 817.322 784.656 815.131 784.221C812.935 783.708 810.896 782.636 809.014 781.005C807.007 779.265 805.455 777.298 804.358 775.104C803.262 772.909 802.553 770.648 802.233 768.321C801.913 765.995 801.937 763.82 802.306 761.798C803.009 761.749 803.932 761.743 805.073 761.782C806.173 761.784 807.294 761.804 808.436 761.842C809.572 761.802 810.555 761.812 811.384 761.872C811.988 763.2 812.727 764.499 813.601 765.77C814.434 767.004 815.52 768.201 816.858 769.361C818.363 770.666 819.894 771.773 821.451 772.683C823.007 773.593 824.476 774.097 825.858 774.197C827.276 774.255 828.494 773.701 829.512 772.534C830.457 771.45 830.919 770.204 830.899 768.796C830.873 767.31 830.511 765.789 829.813 764.232C829.109 762.598 828.21 760.977 827.115 759.369C826.021 757.762 824.874 756.256 823.676 754.851Z" fill="#E5F3FF" fill-opacity="0.5"/>
<path d="M898.326 650.961C898.843 652.396 899.296 654.139 899.687 656.191C900.054 658.168 900.296 660.269 900.413 662.493C900.556 664.667 900.513 666.779 900.284 668.828C900.081 670.828 899.605 672.568 898.858 674.047C897.662 676.414 896.171 677.89 894.385 678.476C892.624 679.012 890.655 678.733 888.477 677.637C886.993 676.89 885.262 675.586 883.284 673.726C881.332 671.816 879.368 669.807 877.391 667.7C875.365 665.567 873.45 663.583 871.646 661.748C869.842 659.913 868.371 658.709 867.233 658.136C866.441 657.738 865.809 657.637 865.338 657.833C864.817 658.003 864.407 658.385 864.108 658.976C863.66 659.864 863.78 661.346 864.468 663.424C865.181 665.452 866.24 667.717 867.646 670.217C869.841 673.857 872.531 677.87 875.715 682.255C878.9 686.64 882.727 691.596 887.197 697.122C886.624 698.132 885.841 699.315 884.846 700.67C883.925 702 882.918 703.256 881.825 704.437C880.756 705.569 879.8 706.418 878.955 706.982C877.992 705.817 876.72 704.404 875.139 702.743C873.557 701.082 871.79 699.296 869.838 697.386C867.886 695.476 865.884 693.603 863.832 691.767C861.756 689.857 859.741 688.132 857.788 686.593C855.81 684.979 854.017 683.675 852.409 682.681L847.537 683.662L846.758 682.992C847.134 681.635 847.696 680.031 848.444 678.182C849.193 676.332 849.978 674.47 850.801 672.596C851.624 670.722 852.347 669.168 852.97 667.936L854.124 667.311C856.45 668.481 858.799 670.096 861.173 672.156C863.571 674.166 865.906 676.423 868.179 678.927C870.402 681.406 872.514 683.922 874.514 686.474L875.632 685.738C874.002 683.557 872.274 681.204 870.447 678.677C868.645 676.101 867.005 673.513 865.525 670.913C863.478 667.224 862.014 663.55 861.132 659.891C860.25 656.231 860.557 652.922 862.051 649.964C863.372 647.351 865.074 645.703 867.157 645.019C869.241 644.336 871.371 644.542 873.549 645.638C874.935 646.335 876.69 647.775 878.815 649.957C880.965 652.09 883.139 654.359 885.338 656.764C887.463 659.193 889.55 661.449 891.601 663.532C893.628 665.541 895.284 666.869 896.571 667.517C897.165 667.815 897.66 667.941 898.057 667.893C898.435 665.671 898.564 663.51 898.446 661.41C898.279 659.285 897.975 657.246 897.534 655.293C897.093 653.34 896.627 651.621 896.136 650.137L896.47 650.027L898.326 650.961Z" fill="#E5F3FF" fill-opacity="0.5"/>
<path d="M921.739 566.424C923.844 566.917 925.566 567.831 926.905 569.165C928.202 570.433 929.181 571.967 929.841 573.766C930.46 575.498 930.792 577.362 930.837 579.357C930.949 581.311 930.797 583.174 930.381 584.948C929.802 587.42 928.952 589.829 927.833 592.175C926.781 594.48 925.488 596.473 923.955 598.155C922.434 599.784 920.737 600.832 918.862 601.299C917.339 600.262 915.996 599.069 914.832 597.719C913.614 596.356 912.543 594.971 911.62 593.565L911.79 592.839C913.282 592.792 914.919 592.608 916.702 592.289C918.486 591.97 920.219 591.497 921.903 590.871C923.588 590.245 925.021 589.475 926.203 588.562C927.398 587.594 928.146 586.466 928.449 585.176C928.776 583.778 928.607 582.435 927.941 581.145C927.222 579.842 925.944 578.976 924.109 578.546C922.759 578.23 921.523 578.28 920.4 578.697C919.277 579.115 918.212 579.772 917.205 580.67C916.156 581.502 915.048 582.461 913.882 583.549C912.212 585.085 910.668 586.453 909.248 587.651C907.787 588.783 906.281 589.62 904.73 590.164C903.137 590.641 901.45 590.671 899.669 590.254C897.078 589.647 895.016 588.484 893.483 586.764C891.95 585.044 890.829 583.023 890.12 580.703C889.424 578.328 889.089 575.869 889.116 573.324C889.089 570.766 889.334 568.385 889.85 566.182C890.795 562.151 892.279 559.097 894.304 557.02C896.287 554.876 898.52 554.095 901.003 554.677C902.46 555.018 903.58 555.706 904.363 556.74C905.146 557.774 905.791 559.031 906.298 560.51C906.179 561.503 906.015 562.57 905.804 563.711C905.594 564.853 905.383 565.994 905.173 567.135C904.975 568.223 904.756 569.277 904.517 570.298L903.731 570.369C902.986 569.174 902.189 568.08 901.34 567.088C900.449 566.029 899.464 565.373 898.384 565.12C897.089 564.816 895.703 565.143 894.225 566.101C892.761 567.005 891.814 568.371 891.386 570.198C890.995 571.865 891.201 573.415 892.004 574.851C892.765 576.22 894.198 577.151 896.303 577.644C897.707 577.973 899.018 577.968 900.236 577.63C901.467 577.238 902.661 576.639 903.818 575.833C904.933 574.96 906.068 574.007 907.221 572.973C908.849 571.37 910.421 570.009 911.936 568.89C913.397 567.758 914.924 566.954 916.516 566.476C918.109 565.999 919.85 565.982 921.739 566.424Z" fill="#E5F3FF" fill-opacity="0.5"/>
<defs>
<linearGradient id="paint0_linear_183_314" x1="34.1333" y1="34.1333" x2="1204.42" y2="1219.05" gradientUnits="userSpaceOnUse">
<stop stop-color="#0487FF"/>
<stop offset="0.588542" stop-color="#996EF5"/>
</linearGradient>
</defs>
</svg>
