<svg width="103" height="103" viewBox="0 0 103 103" fill="none" xmlns="http://www.w3.org/2000/svg">
<path d="M0 23C0 10.2975 10.2975 0 23 0H80C92.7025 0 103 10.2975 103 23V80C103 92.7025 92.7025 103 80 103H23C10.2975 103 0 92.7025 0 80V23Z" fill="black"/>
<path fill-rule="evenodd" clip-rule="evenodd" d="M48.4395 36.1832C45.9125 31.2026 41.5179 27.5037 36.2809 25.9656C30.0917 24.1345 23.7561 25.3796 19.984 29.1151C17.3472 31.7519 16.2485 34.3887 16.102 38.1974C15.9189 42.0427 16.4683 44.7528 17.8965 47.6826C20.1671 52.1871 23.9758 55.3 29.6523 57.2043C34.9991 59.0355 35.6583 58.9622 32.1426 56.948C27.931 54.5675 24.0124 50.7222 23.3532 48.3051C22.9504 46.8036 22.987 46.3642 23.4997 44.9359C25.4041 39.9553 31.9595 39.9919 37.2697 44.9725L39.1008 46.6938V49.6602C39.1374 51.2715 39.3572 53.2858 39.6501 54.0915C39.9431 54.8971 40.1995 56.1423 40.1995 56.8381C40.1995 58.7059 40.822 59.3651 44.7406 61.599C46.645 62.6977 48.2197 63.7231 48.2564 63.8696C48.2564 64.0527 47.0112 64.1626 45.5097 64.1626C43.4222 64.1626 42.763 64.2724 42.763 64.6753C42.763 65.5908 43.8251 68.1544 44.7406 69.546C45.29 70.3151 45.6928 71.3771 45.6928 71.9631C45.6928 74.4534 48.1465 77.4564 50.5636 77.8959C51.9186 78.1523 54.1525 77.2733 55.2878 75.9915C56.1668 75.0027 57.0457 72.8054 57.0457 71.5236C57.0457 70.9377 57.2288 70.3151 57.4485 70.1686C57.9979 69.839 59.9755 65.6275 59.9755 64.7851C59.9755 64.2358 59.6092 64.1626 57.2288 64.1626C55.7273 64.1626 54.4821 64.0527 54.4821 63.8696C54.4821 63.7231 55.6907 62.9907 57.1922 62.2216C61.0375 60.1707 62.539 58.7059 62.539 56.948C62.539 56.1789 62.7954 54.7507 63.0884 53.7252C63.418 52.7364 63.6377 50.7955 63.6011 49.4038C63.5278 46.9143 63.5644 46.8769 65.1376 45.2671L65.1392 45.2655C68.1056 42.2625 73.013 40.5046 75.8329 41.4202C78.5429 42.3357 80.1543 45.5219 79.3852 48.415C78.7627 50.6856 74.7342 54.6042 70.5959 56.948C68.8747 57.9368 67.8126 58.6326 68.2155 58.5227C72.6467 57.4241 74.075 56.948 76.2724 55.8859C82.901 52.7731 86.7097 46.6938 86.7097 39.2228C86.7097 35.524 86.0505 33.29 84.1827 30.7631C81.3628 26.9544 77.7739 25.2698 72.427 25.2331C64.4434 25.1965 57.8514 29.1517 54.299 36.1832L53.3102 38.1608H51.3692H49.4283L48.4395 36.1832Z" fill="white"/>
</svg>
