<svg width="512" height="512" viewBox="0 0 512 512" fill="none" xmlns="http://www.w3.org/2000/svg">
<g clip-path="url(#clip0_506_425)">
<rect width="512" height="512" rx="125" fill="#570F0F"/>
<path fill-rule="evenodd" clip-rule="evenodd" d="M257.824 93.4906C244.681 93.2574 231.666 95.0286 219.208 98.6735C214.779 99.9693 212.261 102.83 211.217 107.361C210.04 112.465 211.045 119.424 215.361 125.575L196.917 138.463C181.339 116.262 186.795 84.7404 212.874 77.1108C227.505 72.8302 242.79 70.75 258.225 71.0239C290.199 71.5914 321.172 82.2325 346.708 101.423C372.245 120.613 391.033 147.368 400.382 177.855C409.731 208.341 409.162 240.996 398.755 271.14C388.348 301.284 368.638 327.371 342.448 345.665C316.258 363.958 284.932 373.519 252.957 372.978C220.983 372.437 190 361.822 164.448 342.652C152.114 333.399 141.35 322.382 132.46 310.031C116.616 288.018 131.775 259.826 157.76 251.884L172.949 247.241C190.544 241.863 208.924 253.225 223.629 264.257C232.578 270.97 243.429 274.688 254.628 274.878C265.826 275.067 276.798 271.719 285.97 265.312C295.143 258.905 302.046 249.768 305.691 239.21C309.336 228.653 309.535 217.216 306.261 206.539C302.987 195.861 296.406 186.491 287.463 179.77C278.519 173.049 267.671 169.322 256.473 169.123C238.072 168.796 216.571 166.476 206.023 151.442L196.917 138.463L215.361 125.575L224.467 138.553C225.714 140.33 228.31 142.474 234.345 144.152C240.51 145.865 248.166 146.502 256.873 146.656C272.818 146.939 288.268 152.246 301.007 161.82C313.747 171.394 323.124 184.745 327.791 199.963C332.458 215.182 332.174 231.483 326.979 246.53C321.784 261.577 311.947 274.595 298.881 283.721C285.816 292.847 270.192 297.615 254.246 297.345C238.3 297.075 222.847 291.781 210.099 282.218C203.142 276.998 196.716 272.804 190.8 270.373C185.01 267.994 181.635 268.087 179.543 268.726L164.353 273.369C157.141 275.574 152.045 280.451 149.82 285.2C147.845 289.415 148.069 293.201 150.747 296.922C158.314 307.435 167.477 316.813 177.978 324.691C199.731 341.011 226.111 350.05 253.339 350.511C280.566 350.972 307.239 342.83 329.537 327.256C351.834 311.682 368.61 289.475 377.467 263.82C386.324 238.166 386.809 210.376 378.852 184.43C370.895 158.484 354.904 135.71 333.164 119.373C311.424 103.035 285.051 93.9739 257.824 93.4906Z" fill="#B7131F"/>
<path d="M105 220.185C105 192.469 127.61 170 155.5 170V170C183.39 170 206 192.469 206 220.185V390.815C206 418.531 183.39 441 155.5 441V441C127.61 441 105 418.531 105 390.815V220.185Z" fill="#640D14"/>
<path d="M196.917 138.463C181.339 116.262 186.795 84.7404 212.874 77.1108C227.505 72.8302 242.79 70.75 258.225 71.0239C290.199 71.5914 321.172 82.2325 346.708 101.423C372.245 120.613 391.033 147.368 400.382 177.855C409.731 208.341 409.162 240.996 398.755 271.14C388.348 301.284 368.638 327.371 342.448 345.665C316.258 363.958 284.932 373.519 252.957 372.978C220.983 372.437 190 361.822 164.448 342.652C152.114 333.399 141.35 322.382 132.46 310.031C116.616 288.018 131.775 259.826 157.76 251.884L172.949 247.241C190.544 241.863 208.924 253.225 223.629 264.257V264.257C232.578 270.97 243.429 274.688 254.628 274.878C265.826 275.067 276.798 271.719 285.97 265.312C295.143 258.905 302.046 249.768 305.691 239.21C309.336 228.653 309.535 217.216 306.261 206.539C302.987 195.861 296.406 186.491 287.463 179.77C278.519 173.049 267.671 169.322 256.473 169.123V169.123C238.072 168.796 216.571 166.476 206.023 151.442L196.917 138.463Z" fill="url(#paint0_linear_506_425)"/>
<path fill-rule="evenodd" clip-rule="evenodd" d="M181.652 390.815V220.185C181.652 205.88 169.974 194.228 155.5 194.228C141.026 194.228 129.348 205.88 129.348 220.185V390.815C129.348 405.12 141.026 416.772 155.5 416.772C169.974 416.772 181.652 405.12 181.652 390.815ZM155.5 170C127.61 170 105 192.469 105 220.185V390.815C105 418.531 127.61 441 155.5 441C183.39 441 206 418.531 206 390.815V220.185C206 192.469 183.39 170 155.5 170Z" fill="#B7131F"/>
<rect x="126" y="189" width="55" height="236" fill="#B7131F"/>
<rect x="126" y="189" width="55" height="236" fill="#B7131F"/>
</g>
<defs>
<linearGradient id="paint0_linear_506_425" x1="212.106" y1="340.787" x2="266.097" y2="151.778" gradientUnits="userSpaceOnUse">
<stop stop-color="#910E18"/>
<stop offset="1" stop-color="#B7131F"/>
</linearGradient>
<clipPath id="clip0_506_425">
<rect width="512" height="512" fill="white"/>
</clipPath>
</defs>
</svg>
